<svg xmlns="http://www.w3.org/2000/svg" xmlns:xlink="http://www.w3.org/1999/xlink" width="1500" zoomAndPan="magnify" viewBox="0 0 1125 449.999984" height="600" preserveAspectRatio="xMidYMid meet" version="1.0"><defs><g/><clipPath id="9e2671bd26"><rect x="0" width="1030" y="0" height="336"/></clipPath><clipPath id="1512054df3"><path d="M 336 16 L 387.398438 16 L 387.398438 218 L 336 218 Z M 336 16 " clip-rule="nonzero"/></clipPath><clipPath id="2542537930"><rect x="0" width="388" y="0" height="303"/></clipPath><clipPath id="9fddf4ae40"><rect x="0" width="327" y="0" height="335"/></clipPath><clipPath id="27e2bbaf43"><rect x="0" width="111" y="0" height="335"/></clipPath></defs><g transform="matrix(1, 0, 0, 1, 86, 77)"><g clip-path="url(#9e2671bd26)"><g fill="#ffffff" fill-opacity="1"><g transform="translate(1.008305, 242.09217)"><g><path d="M 66.28125 -220.484375 L 66.28125 -44.09375 L 142.171875 -44.09375 L 142.171875 0 L 16.03125 0 L 16.03125 -220.484375 Z M 66.28125 -220.484375 "/></g></g></g><g fill="#ffffff" fill-opacity="1"><g transform="translate(152.012537, 242.09217)"><g/></g></g><g fill="#ffffff" fill-opacity="1"><g transform="translate(224.966886, 242.09217)"><g/></g></g><g fill="#ffffff" fill-opacity="1"><g transform="translate(297.921236, 242.09217)"><g/></g></g><g fill="#ffffff" fill-opacity="1"><g transform="translate(370.875585, 242.09217)"><g/></g></g><g fill="#ffffff" fill-opacity="1"><g transform="translate(443.829935, 242.09217)"><g/></g></g><g fill="#ffffff" fill-opacity="1"><g transform="translate(516.784285, 242.09217)"><g/></g></g><g fill="#ffffff" fill-opacity="1"><g transform="translate(589.738634, 242.09217)"><g/></g></g><g fill="#ffffff" fill-opacity="1"><g transform="translate(662.692984, 242.09217)"><g/></g></g><g fill="#ffffff" fill-opacity="1"><g transform="translate(735.647333, 242.09217)"><g/></g></g><g fill="#ffffff" fill-opacity="1"><g transform="translate(808.601683, 242.09217)"><g/></g></g><g fill="#ffffff" fill-opacity="1"><g transform="translate(881.556033, 242.09217)"><g/></g></g><g fill="#ffffff" fill-opacity="1"><g transform="translate(954.510382, 242.09217)"><g/></g></g></g></g><g transform="matrix(1, 0, 0, 1, 221, 99)"><g clip-path="url(#2542537930)"><g fill="#ffffff" fill-opacity="1"><g transform="translate(0.776849, 217.038944)"><g><path d="M 18.59375 -192.9375 C 23.582031 -197.9375 29.535156 -200.4375 36.453125 -200.4375 C 43.378906 -200.4375 49.335938 -197.9375 54.328125 -192.9375 C 59.316406 -187.945312 61.8125 -181.988281 61.8125 -175.0625 C 61.8125 -168.144531 59.316406 -162.191406 54.328125 -157.203125 C 49.335938 -152.210938 43.378906 -149.71875 36.453125 -149.71875 C 29.535156 -149.71875 23.582031 -152.210938 18.59375 -157.203125 C 13.601562 -162.191406 11.109375 -168.144531 11.109375 -175.0625 C 11.109375 -181.988281 13.601562 -187.945312 18.59375 -192.9375 Z M 14.484375 -123.875 L 14.484375 0 L 57.234375 0 L 57.234375 -123.875 Z M 14.484375 -123.875 "/></g></g></g><g fill="#ffffff" fill-opacity="1"><g transform="translate(54.865391, 217.038944)"><g><path d="M 18.59375 -192.9375 C 23.582031 -197.9375 29.535156 -200.4375 36.453125 -200.4375 C 43.378906 -200.4375 49.335938 -197.9375 54.328125 -192.9375 C 59.316406 -187.945312 61.8125 -181.988281 61.8125 -175.0625 C 61.8125 -168.144531 59.316406 -162.191406 54.328125 -157.203125 C 49.335938 -152.210938 43.378906 -149.71875 36.453125 -149.71875 C 29.535156 -149.71875 23.582031 -152.210938 18.59375 -157.203125 C 13.601562 -162.191406 11.109375 -168.144531 11.109375 -175.0625 C 11.109375 -181.988281 13.601562 -187.945312 18.59375 -192.9375 Z M 14.484375 -123.875 L 14.484375 0 L 57.234375 0 L 57.234375 -123.875 Z M 14.484375 -123.875 "/></g></g></g><g fill="#ffffff" fill-opacity="1"><g transform="translate(108.953934, 217.038944)"><g><path d="M 18.59375 -192.9375 C 23.582031 -197.9375 29.535156 -200.4375 36.453125 -200.4375 C 43.378906 -200.4375 49.335938 -197.9375 54.328125 -192.9375 C 59.316406 -187.945312 61.8125 -181.988281 61.8125 -175.0625 C 61.8125 -168.144531 59.316406 -162.191406 54.328125 -157.203125 C 49.335938 -152.210938 43.378906 -149.71875 36.453125 -149.71875 C 29.535156 -149.71875 23.582031 -152.210938 18.59375 -157.203125 C 13.601562 -162.191406 11.109375 -168.144531 11.109375 -175.0625 C 11.109375 -181.988281 13.601562 -187.945312 18.59375 -192.9375 Z M 14.484375 -123.875 L 14.484375 0 L 57.234375 0 L 57.234375 -123.875 Z M 14.484375 -123.875 "/></g></g></g><g fill="#ffffff" fill-opacity="1"><g transform="translate(163.042476, 217.038944)"><g><path d="M 18.59375 -192.9375 C 23.582031 -197.9375 29.535156 -200.4375 36.453125 -200.4375 C 43.378906 -200.4375 49.335938 -197.9375 54.328125 -192.9375 C 59.316406 -187.945312 61.8125 -181.988281 61.8125 -175.0625 C 61.8125 -168.144531 59.316406 -162.191406 54.328125 -157.203125 C 49.335938 -152.210938 43.378906 -149.71875 36.453125 -149.71875 C 29.535156 -149.71875 23.582031 -152.210938 18.59375 -157.203125 C 13.601562 -162.191406 11.109375 -168.144531 11.109375 -175.0625 C 11.109375 -181.988281 13.601562 -187.945312 18.59375 -192.9375 Z M 14.484375 -123.875 L 14.484375 0 L 57.234375 0 L 57.234375 -123.875 Z M 14.484375 -123.875 "/></g></g></g><g fill="#ffffff" fill-opacity="1"><g transform="translate(217.131019, 217.038944)"><g><path d="M 18.59375 -192.9375 C 23.582031 -197.9375 29.535156 -200.4375 36.453125 -200.4375 C 43.378906 -200.4375 49.335938 -197.9375 54.328125 -192.9375 C 59.316406 -187.945312 61.8125 -181.988281 61.8125 -175.0625 C 61.8125 -168.144531 59.316406 -162.191406 54.328125 -157.203125 C 49.335938 -152.210938 43.378906 -149.71875 36.453125 -149.71875 C 29.535156 -149.71875 23.582031 -152.210938 18.59375 -157.203125 C 13.601562 -162.191406 11.109375 -168.144531 11.109375 -175.0625 C 11.109375 -181.988281 13.601562 -187.945312 18.59375 -192.9375 Z M 14.484375 -123.875 L 14.484375 0 L 57.234375 0 L 57.234375 -123.875 Z M 14.484375 -123.875 "/></g></g></g><g fill="#ffffff" fill-opacity="1"><g transform="translate(271.219576, 217.038944)"><g><path d="M 18.59375 -192.9375 C 23.582031 -197.9375 29.535156 -200.4375 36.453125 -200.4375 C 43.378906 -200.4375 49.335938 -197.9375 54.328125 -192.9375 C 59.316406 -187.945312 61.8125 -181.988281 61.8125 -175.0625 C 61.8125 -168.144531 59.316406 -162.191406 54.328125 -157.203125 C 49.335938 -152.210938 43.378906 -149.71875 36.453125 -149.71875 C 29.535156 -149.71875 23.582031 -152.210938 18.59375 -157.203125 C 13.601562 -162.191406 11.109375 -168.144531 11.109375 -175.0625 C 11.109375 -181.988281 13.601562 -187.945312 18.59375 -192.9375 Z M 14.484375 -123.875 L 14.484375 0 L 57.234375 0 L 57.234375 -123.875 Z M 14.484375 -123.875 "/></g></g></g><g clip-path="url(#1512054df3)"><g fill="#ffffff" fill-opacity="1"><g transform="translate(325.308103, 217.038944)"><g><path d="M 18.59375 -192.9375 C 23.582031 -197.9375 29.535156 -200.4375 36.453125 -200.4375 C 43.378906 -200.4375 49.335938 -197.9375 54.328125 -192.9375 C 59.316406 -187.945312 61.8125 -181.988281 61.8125 -175.0625 C 61.8125 -168.144531 59.316406 -162.191406 54.328125 -157.203125 C 49.335938 -152.210938 43.378906 -149.71875 36.453125 -149.71875 C 29.535156 -149.71875 23.582031 -152.210938 18.59375 -157.203125 C 13.601562 -162.191406 11.109375 -168.144531 11.109375 -175.0625 C 11.109375 -181.988281 13.601562 -187.945312 18.59375 -192.9375 Z M 14.484375 -123.875 L 14.484375 0 L 57.234375 0 L 57.234375 -123.875 Z M 14.484375 -123.875 "/></g></g></g></g></g></g><g transform="matrix(1, 0, 0, 1, 603, 77)"><g clip-path="url(#9fddf4ae40)"><g fill="#ffffff" fill-opacity="1"><g transform="translate(0.878685, 240.489518)"><g><path d="M 9.890625 33.671875 L 48.640625 14.703125 C 55.765625 26.460938 68.144531 32.34375 85.78125 32.34375 C 93.976562 32.34375 101.59375 29.710938 108.625 24.453125 C 115.664062 19.191406 119.1875 11.128906 119.1875 0.265625 L 119.1875 -9.890625 C 110.8125 -0.617188 95.847656 4.015625 74.296875 4.015625 C 54.515625 4.015625 38.207031 -2.976562 25.375 -16.96875 C 12.550781 -30.957031 6.140625 -48.101562 6.140625 -68.40625 C 6.140625 -88.71875 12.550781 -105.910156 25.375 -119.984375 C 38.207031 -134.066406 54.515625 -141.109375 74.296875 -141.109375 C 91.929688 -141.109375 106.628906 -135.675781 118.390625 -124.8125 L 119.1875 -124.8125 L 119.1875 -137.09375 L 166.5 -137.09375 L 166.5 3.734375 C 166.5 26.003906 159.101562 43.195312 144.3125 55.3125 C 129.53125 67.4375 110.019531 73.5 85.78125 73.5 C 46.59375 73.5 21.296875 60.222656 9.890625 33.671875 Z M 65.609375 -91.65625 C 59.460938 -85.601562 56.390625 -77.851562 56.390625 -68.40625 C 56.390625 -58.96875 59.328125 -51.265625 65.203125 -45.296875 C 71.085938 -39.328125 78.835938 -36.34375 88.453125 -36.34375 C 97.722656 -36.34375 105.34375 -39.367188 111.3125 -45.421875 C 117.28125 -51.484375 120.265625 -59.148438 120.265625 -68.421875 C 120.265625 -77.859375 117.191406 -85.601562 111.046875 -91.65625 C 104.898438 -97.71875 97.367188 -100.75 88.453125 -100.75 C 79.367188 -100.75 71.753906 -97.71875 65.609375 -91.65625 Z M 65.609375 -91.65625 "/></g></g></g><g fill="#ffffff" fill-opacity="1"><g transform="translate(158.556932, 240.489518)"><g><path d="M 16.03125 0 L 16.03125 -229.828125 L 63.34375 -229.828125 L 63.34375 -122.671875 L 63.875 -122.671875 C 76.164062 -134.960938 89.257812 -141.109375 103.15625 -141.109375 C 109.925781 -141.109375 116.648438 -140.21875 123.328125 -138.4375 C 130.015625 -136.65625 136.429688 -133.890625 142.578125 -130.140625 C 148.722656 -126.398438 153.710938 -121.097656 157.546875 -114.234375 C 161.378906 -107.378906 163.296875 -99.410156 163.296875 -90.328125 L 163.296875 0 L 115.984375 0 L 115.984375 -77.5 C 115.984375 -84.625 113.710938 -90.859375 109.171875 -96.203125 C 104.628906 -101.554688 98.707031 -104.234375 91.40625 -104.234375 C 84.269531 -104.234375 77.804688 -101.46875 72.015625 -95.9375 C 66.234375 -90.414062 63.34375 -84.269531 63.34375 -77.5 L 63.34375 0 Z M 16.03125 0 "/></g></g></g></g></g><g transform="matrix(1, 0, 0, 1, 921, 73)"><g clip-path="url(#27e2bbaf43)"><g fill="#ffffff" fill-opacity="1"><g transform="translate(1.314283, 240.659919)"><g><path d="M 24.046875 -137.09375 L 24.046875 -188.140625 L 71.359375 -188.140625 L 71.359375 -137.09375 L 100.21875 -137.09375 L 100.21875 -101.015625 L 71.359375 -101.015625 L 71.359375 -57.453125 C 71.359375 -44.804688 74.921875 -38.484375 82.046875 -38.484375 C 83.828125 -38.484375 85.695312 -38.835938 87.65625 -39.546875 C 89.613281 -40.265625 91.128906 -40.976562 92.203125 -41.6875 L 93.8125 -42.765625 L 105.5625 -4.546875 C 95.40625 1.160156 83.828125 4.015625 70.828125 4.015625 C 61.910156 4.015625 54.242188 2.457031 47.828125 -0.65625 C 41.421875 -3.78125 36.566406 -7.96875 33.265625 -13.21875 C 29.972656 -18.476562 27.613281 -24.003906 26.1875 -29.796875 C 24.757812 -35.585938 24.046875 -41.78125 24.046875 -48.375 L 24.046875 -101.015625 L 4.28125 -101.015625 L 4.28125 -137.09375 Z M 24.046875 -137.09375 "/></g></g></g></g></g></svg>